<svg width="1200" height="630" viewBox="0 0 1200 630" xmlns="http://www.w3.org/2000/svg">
  <defs>
    <linearGradient id="ogBg" x1="0%" y1="0%" x2="100%" y2="100%">
      <stop offset="0%" style="stop-color:#ffffff"/>
      <stop offset="100%" style="stop-color:#f0f4ff"/>
    </linearGradient>
  </defs>
  
  <!-- Background -->
  <rect width="1200" height="630" fill="url(#ogBg)"/>
  
  <!-- Decorative circles -->
  <circle cx="1100" cy="100" r="150" fill="rgba(59, 130, 246, 0.1)"/>
  <circle cx="100" cy="530" r="100" fill="rgba(59, 130, 246, 0.1)"/>
  
  <!-- Logo -->
  <g transform="translate(540, 155)">
    <rect width="120" height="120" rx="15" fill="#3B82F6"/>
    <rect x="30" y="24" width="60" height="72" rx="4" fill="white"/>
    <rect x="36" y="36" width="48" height="2" rx="1" fill="#93C5FD"/>
    <rect x="36" y="44" width="36" height="2" rx="1" fill="#93C5FD"/>
    <rect x="36" y="52" width="48" height="2" rx="1" fill="#93C5FD"/>
    <rect x="36" y="60" width="30" height="2" rx="1" fill="#93C5FD"/>
    <rect x="36" y="76" width="48" height="8" rx="2" fill="#1D4ED8"/>
    <path d="M60 16L68 24H52L60 16Z" fill="#1D4ED8"/>
  </g>
  
  <!-- Title -->
  <text x="600" y="340" font-family="Arial, sans-serif" font-size="60" font-weight="bold" fill="#1e3a8a" text-anchor="middle">Invoice.wiki - Free Invoice Generator</text>
  
  <!-- Subtitle -->
  <text x="600" y="400" font-family="Arial, sans-serif" font-size="30" fill="#3b82f6" text-anchor="middle">Generate invoices online in seconds</text>
</svg> 