<svg width="800" height="418" viewBox="0 0 800 418" xmlns="http://www.w3.org/2000/svg">
  <defs>
    <linearGradient id="bg" x1="0%" y1="0%" x2="100%" y2="100%">
      <stop offset="0%" style="stop-color:#f0f4ff"/>
      <stop offset="100%" style="stop-color:#dbeafe"/>
    </linearGradient>
  </defs>
  
  <!-- Background -->
  <rect width="800" height="418" fill="url(#bg)"/>
  
  <!-- Decorative circles -->
  <circle cx="750" cy="50" r="100" fill="rgba(59, 130, 246, 0.1)"/>
  <circle cx="50" cy="368" r="75" fill="rgba(59, 130, 246, 0.1)"/>
  
  <!-- Logo -->
  <g transform="translate(200, 149)">
    <rect width="120" height="120" rx="15" fill="#3B82F6"/>
    <rect x="30" y="24" width="60" height="72" rx="4" fill="white"/>
    <rect x="36" y="36" width="48" height="2" rx="1" fill="#93C5FD"/>
    <rect x="36" y="44" width="36" height="2" rx="1" fill="#93C5FD"/>
    <rect x="36" y="52" width="48" height="2" rx="1" fill="#93C5FD"/>
    <rect x="36" y="60" width="30" height="2" rx="1" fill="#93C5FD"/>
    <rect x="36" y="76" width="48" height="8" rx="2" fill="#1D4ED8"/>
    <path d="M60 16L68 24H52L60 16Z" fill="#1D4ED8"/>
  </g>
  
  <!-- Text -->
  <text x="370" y="190" font-family="Arial, sans-serif" font-size="40" font-weight="bold" fill="#1e3a8a">Invoice.wiki</text>
  <text x="370" y="235" font-family="Arial, sans-serif" font-size="20" fill="#3b82f6">Free online invoice generator in PDF format</text>
</svg> 